<?xml version="1.0" encoding="UTF-8"?>
<svg id="logosandtypes_com" data-name="logosandtypes com" xmlns="http://www.w3.org/2000/svg" viewBox="0 0 150 150">
  <defs>
    <style>
      .cls-1 {
        fill: #39006c;
      }

      .cls-2 {
        fill: none;
      }
    </style>
  </defs>
  <path class="cls-2" d="M0,0H150V150H0V0Z"/>
  <path class="cls-1" d="M135.67,79.87h-12.01c-1.41,0-2.47,1.06-2.59,2.47-1.77,19.08-14.37,28.5-18.6,31.79-10.36,7.77-30.26,10.95-39.68-5.77,7.54-.82,16.96-4,26.61-10.24,13.89-8.95,19.55-25.43,10.83-39.33-11.66-18.6-33.68-13.07-43.57-5.53-7.42,5.65-12.01,12.95-6.01,18.49,7.54,6.83,17.31-4.59,23.67-6.83,4.83-1.77,8.24-.71,10.83,2.94,2.94,4.12,2.36,9.54-2.94,14.13-8.24,7.07-33.09,18.02-47.45-.59-8.95-11.54-3.65-32.15,12.72-43.57,6.71-4.71,14.13-7.42,21.2-7.89,1.41-.12,2.47-1.3,2.47-2.59V15.34c0-1.53-1.3-2.71-2.71-2.59-10.36,.59-21.2,4.24-30.85,11.07C13.56,40.66,5.91,70.92,20.51,91.41c5.65,7.89,13.89,13.19,23.2,15.66,2.47,9.3,7.77,17.55,15.66,23.2,16.13,11.42,38.5,9.3,55.46-4,13.19-10.36,22.26-26.02,23.43-43.69,.12-1.41-1.18-2.71-2.59-2.71Z"/>
</svg>